/* XPM */
static char *_2a0285d97864126a26ee103212fad84o6lrjfrhuN6mC5wh[] = {
/* columns rows colors chars-per-pixel */
"33 29 12 1 ",
"  c black",
". c #990030",
"X c #B02038",
"o c #D82746",
"O c #DA304E",
"+ c #D84870",
"@ c #FF0080",
"# c #F071A0",
"$ c #F578C7",
"% c #F890C0",
"& c #F8A0D8",
"* c white",
/* pixels */
"*********************************",
"*********************************",
"*********************************",
"*********************************",
"*********************************",
"*********************************",
"*************      **************",
"***********   X&&X   ************",
"**********  +#&&&&%+  ***********",
"*********  %&&&&&&&&%X **********",
"********* #&&&&X+&X+&% **********",
"********  &&&&&*.&*.&&X *********",
"*******  %&&&&&X &X &&+ *********",
"******* #&%&&&&$ &$ &&%  ********",
"****** X&&&&&@@% && @%&%X *******",
"****** &&&&&&&&&&&&&&&%%& *******",
"****** #&%#%&&&&&&+&&&%## *******",
"****** o####&&&&&&&&&&++X *******",
"*******  X+##&&&&&&&&%oX ********",
"******** oo+####%%%##+o *********",
"******* @*@@@+######X@@@ ********",
"****** X@@@@@o+###OXo@@@X *******",
"****** XooooooX  XXXooo.X *******",
"*******        **        ********",
"*********************************",
"*********************************",
"*********************************",
"*********************************",
"*********************************"
};
